<mxfile host="Electron" agent="Mozilla/5.0 (Windows NT 10.0; Win64; x64) AppleWebKit/537.36 (KHTML, like Gecko) draw.io/24.7.17 Chrome/128.0.6613.36 Electron/32.0.1 Safari/537.36" version="24.7.17">
  <diagram name="Page-1" id="SwTJ515KAo3YwoXpDDMD">
    <mxGraphModel dx="618" dy="370" grid="1" gridSize="10" guides="1" tooltips="1" connect="1" arrows="1" fold="1" page="1" pageScale="1" pageWidth="850" pageHeight="1100" math="0" shadow="0">
      <root>
        <mxCell id="0" />
        <mxCell id="1" parent="0" />
        <mxCell id="GlaSrgELLrjd5LADzqwT-1" value="&lt;b&gt;WebSocket 1&lt;/b&gt;" style="rounded=1;whiteSpace=wrap;html=1;" vertex="1" parent="1">
          <mxGeometry x="50" y="330" width="120" height="60" as="geometry" />
        </mxCell>
        <mxCell id="GlaSrgELLrjd5LADzqwT-2" value="&lt;b&gt;Websocket 2&lt;/b&gt;" style="rounded=1;whiteSpace=wrap;html=1;" vertex="1" parent="1">
          <mxGeometry x="630" y="330" width="120" height="60" as="geometry" />
        </mxCell>
        <mxCell id="GlaSrgELLrjd5LADzqwT-3" value="&lt;b&gt;Least Connections&lt;/b&gt;" style="rounded=1;whiteSpace=wrap;html=1;" vertex="1" parent="1">
          <mxGeometry x="340" y="140" width="120" height="60" as="geometry" />
        </mxCell>
        <mxCell id="GlaSrgELLrjd5LADzqwT-4" value="&lt;b&gt;Redis Server&lt;/b&gt;" style="rounded=0;whiteSpace=wrap;html=1;" vertex="1" parent="1">
          <mxGeometry x="340" y="330" width="120" height="60" as="geometry" />
        </mxCell>
        <mxCell id="GlaSrgELLrjd5LADzqwT-5" value="" style="endArrow=none;html=1;rounded=0;entryX=0.5;entryY=1;entryDx=0;entryDy=0;exitX=0.5;exitY=0;exitDx=0;exitDy=0;" edge="1" parent="1" source="GlaSrgELLrjd5LADzqwT-4" target="GlaSrgELLrjd5LADzqwT-3">
          <mxGeometry width="50" height="50" relative="1" as="geometry">
            <mxPoint x="400" y="360" as="sourcePoint" />
            <mxPoint x="450" y="310" as="targetPoint" />
          </mxGeometry>
        </mxCell>
        <mxCell id="GlaSrgELLrjd5LADzqwT-6" value="" style="endArrow=none;html=1;rounded=0;exitX=0;exitY=0.5;exitDx=0;exitDy=0;entryX=1;entryY=0.5;entryDx=0;entryDy=0;" edge="1" parent="1" source="GlaSrgELLrjd5LADzqwT-4" target="GlaSrgELLrjd5LADzqwT-1">
          <mxGeometry width="50" height="50" relative="1" as="geometry">
            <mxPoint x="400" y="360" as="sourcePoint" />
            <mxPoint x="450" y="310" as="targetPoint" />
          </mxGeometry>
        </mxCell>
        <mxCell id="GlaSrgELLrjd5LADzqwT-7" value="" style="endArrow=none;html=1;rounded=0;entryX=0;entryY=0.5;entryDx=0;entryDy=0;exitX=1;exitY=0.5;exitDx=0;exitDy=0;" edge="1" parent="1" source="GlaSrgELLrjd5LADzqwT-4" target="GlaSrgELLrjd5LADzqwT-2">
          <mxGeometry width="50" height="50" relative="1" as="geometry">
            <mxPoint x="460" y="360" as="sourcePoint" />
            <mxPoint x="450" y="310" as="targetPoint" />
          </mxGeometry>
        </mxCell>
        <mxCell id="GlaSrgELLrjd5LADzqwT-13" style="edgeStyle=none;rounded=0;orthogonalLoop=1;jettySize=auto;html=1;" edge="1" parent="1" source="GlaSrgELLrjd5LADzqwT-8">
          <mxGeometry relative="1" as="geometry">
            <mxPoint x="400" y="280" as="targetPoint" />
          </mxGeometry>
        </mxCell>
        <mxCell id="GlaSrgELLrjd5LADzqwT-14" style="edgeStyle=none;rounded=0;orthogonalLoop=1;jettySize=auto;html=1;" edge="1" parent="1" source="GlaSrgELLrjd5LADzqwT-8">
          <mxGeometry relative="1" as="geometry">
            <mxPoint x="560" y="360" as="targetPoint" />
          </mxGeometry>
        </mxCell>
        <mxCell id="GlaSrgELLrjd5LADzqwT-8" value="&lt;b&gt;classconnect-channel&lt;/b&gt;" style="text;html=1;align=center;verticalAlign=middle;resizable=0;points=[];autosize=1;strokeColor=none;fillColor=none;" vertex="1" parent="1">
          <mxGeometry x="560" y="240" width="150" height="30" as="geometry" />
        </mxCell>
        <mxCell id="GlaSrgELLrjd5LADzqwT-9" value="Publishes teacher data when&amp;nbsp;&lt;div&gt;teacher connects&lt;/div&gt;" style="text;html=1;align=center;verticalAlign=middle;resizable=0;points=[];autosize=1;strokeColor=none;fillColor=none;" vertex="1" parent="1">
          <mxGeometry x="170" y="313" width="180" height="40" as="geometry" />
        </mxCell>
        <mxCell id="GlaSrgELLrjd5LADzqwT-10" value="Publishes start mesage&amp;nbsp;&lt;div&gt;which prompts every&amp;nbsp;&lt;/div&gt;&lt;div&gt;websocket&amp;nbsp;&lt;span style=&quot;background-color: initial;&quot;&gt;to send message&amp;nbsp;&lt;/span&gt;&lt;/div&gt;&lt;div&gt;to respective students connected&lt;/div&gt;" style="text;html=1;align=center;verticalAlign=middle;resizable=0;points=[];autosize=1;strokeColor=none;fillColor=none;" vertex="1" parent="1">
          <mxGeometry x="160" y="370" width="200" height="70" as="geometry" />
        </mxCell>
        <mxCell id="GlaSrgELLrjd5LADzqwT-11" value="Continously listens&amp;nbsp;&lt;div&gt;for &#39;check&#39; message&lt;div&gt;to make updates&lt;/div&gt;&lt;/div&gt;" style="text;html=1;align=center;verticalAlign=middle;resizable=0;points=[];autosize=1;strokeColor=none;fillColor=none;" vertex="1" parent="1">
          <mxGeometry x="400" y="200" width="130" height="60" as="geometry" />
        </mxCell>
        <mxCell id="GlaSrgELLrjd5LADzqwT-15" value="Publishes the url and&amp;nbsp;&lt;div&gt;active connection&lt;div&gt;whenever new client&amp;nbsp;&lt;/div&gt;&lt;div&gt;connects or disconects&lt;/div&gt;&lt;/div&gt;" style="text;html=1;align=center;verticalAlign=middle;resizable=0;points=[];autosize=1;strokeColor=none;fillColor=none;" vertex="1" parent="1">
          <mxGeometry x="470" y="360" width="150" height="70" as="geometry" />
        </mxCell>
      </root>
    </mxGraphModel>
  </diagram>
</mxfile>
